<?xml version="1.0" encoding="utf-8"?>
<svg version="1.1" xmlns="http://www.w3.org/2000/svg" xmlns:xlink="http://www.w3.org/1999/xlink" fill="#fff" x="0px" y="0px" viewBox="0 0 1000 1000" enable-background="new 0 0 1000 1000" xml:space="preserve">
<g><path d="M500,10C229.3,10,10,229.3,10,500c0,270.7,219.3,490,490,490s490-219.3,490-490C990,229.3,770.7,10,500,10z M500,943.3C257.3,943.3,56.7,742.7,56.7,500C56.7,257.3,257.3,56.7,500,56.7S943.3,257.3,943.3,500C943.3,742.7,747.3,943.3,500,943.3z"/><path d="M320.5,281.4L756.1,717l-33,33L287.5,314.4L320.5,281.4z"/><path d="M719.8,278.1l33,33L317.3,746.8l-33-33L719.8,278.1L719.8,278.1z"/></g>
</svg>