<?xml version="1.0" encoding="utf-8"?>
<svg version="1.1" xmlns="http://www.w3.org/2000/svg" xmlns:xlink="http://www.w3.org/1999/xlink" x="0px" y="0px" fill="#fff" viewBox="0 0 1000 1000" enable-background="new 0 0 1000 1000" xml:space="preserve">
<g><path d="M469.4,255v367.5h61.3V255H469.4z M469.4,683.8V745h61.3v-61.3H469.4z M10,500c0,270.7,219.3,490,490,490c270.7,0,490-219.3,490-490c0-270.7-219.3-490-490-490C229.3,10,10,229.3,10,500z M71.3,500c0-236.7,192-428.8,428.8-428.8c236.7,0,428.8,192,428.8,428.8c0,236.7-192,428.8-428.8,428.8C263.3,928.8,71.3,736.7,71.3,500z"/></g>
</svg>